<svg width="356" height="540" viewBox="0 0 356 540" fill="none" xmlns="http://www.w3.org/2000/svg">
<path d="M63.0168 517.097H278.11C298.386 517.097 314.024 511.62 324.592 500.82C335.161 490.007 340.519 474.962 340.519 456.11V22.6827H285.558V198.931C285.558 242.699 274.561 276.131 252.872 298.301C231.181 320.483 203.083 331.731 169.357 331.731C139.478 331.731 115.392 323.649 97.7687 307.709C80.1141 291.749 71.1628 266.059 71.1628 231.349V22.6827H16.2052V235.672C16.2052 266.573 22.3425 293.075 34.443 314.438C46.5416 335.792 63.3667 352.146 84.4611 363.044C105.587 373.966 129.062 379.505 154.237 379.505C178.003 379.505 197.999 376.498 213.671 370.562C229.308 364.638 242.158 356.714 251.859 347.009C261.571 337.296 268.899 327.327 273.637 317.381L273.9 316.829H285.559V446.025C285.559 461.009 278.208 468.603 263.706 468.603H63.0168V517.097ZM278.111 519.031H61.084V466.67H263.706C277.11 466.67 283.627 459.916 283.627 446.025V318.762H275.118C270.278 328.723 262.916 338.685 253.227 348.375C243.33 358.277 230.252 366.349 214.356 372.37C198.464 378.385 178.238 381.436 154.237 381.436C128.751 381.436 104.976 375.825 83.5743 364.76C62.143 353.686 45.0494 337.075 32.7638 315.39C20.4948 293.733 14.2724 266.912 14.2724 235.672V20.7494H73.0993V231.349C73.0993 265.488 81.8378 290.696 99.0684 306.273C116.327 321.885 139.976 329.798 169.361 329.798C202.546 329.798 230.18 318.746 251.493 296.949C272.817 275.155 283.627 242.177 283.627 198.933V20.7494H342.454V456.11C342.454 475.486 336.909 490.985 325.975 502.172C315.029 513.359 298.926 519.031 278.111 519.031Z" fill="url(#paint0_linear_65_18)"/>
<path d="M72.4421 496.897H269.96C288.579 496.897 302.94 491.868 312.643 481.949C322.348 472.02 327.269 458.205 327.269 440.894V42.8827H276.799V204.729C276.799 244.92 266.7 275.622 246.785 295.979C226.866 316.349 201.063 326.677 170.096 326.677C142.657 326.677 120.54 319.255 104.358 304.618C88.1453 289.962 79.9253 266.372 79.9253 234.499V42.8827H29.4554V238.466C29.4554 266.844 35.0909 291.179 46.2028 310.796C57.3128 330.405 72.7642 345.422 92.1332 355.429C111.534 365.459 133.091 370.546 156.207 370.546C178.031 370.546 196.392 367.783 210.785 362.335C225.144 356.896 236.945 349.618 245.852 340.707C254.77 331.788 261.499 322.635 265.85 313.501L266.091 312.996H276.797V431.635C276.797 445.392 270.045 452.368 256.73 452.368H72.4421V496.899V496.897ZM269.96 498.672H70.6685V450.59H256.732C269.042 450.59 275.025 444.388 275.025 431.633V314.77H267.211C262.766 323.918 256.006 333.064 247.109 341.962C238.02 351.055 226.011 358.468 211.414 363.996C196.82 369.52 178.247 372.322 156.209 372.322C132.806 372.322 110.974 367.168 91.3204 357.009C71.6405 346.84 55.9428 331.586 44.6625 311.673C33.3951 291.786 27.6818 267.157 27.6818 238.468V41.1087H81.7026V234.499C81.7026 265.848 89.7264 288.996 105.55 303.299C121.399 317.635 143.114 324.901 170.099 324.901C200.573 324.901 225.948 314.753 245.52 294.736C265.1 274.722 275.027 244.44 275.027 204.729V41.1087H329.048V440.894C329.048 458.686 323.957 472.918 313.915 483.192C303.864 493.466 289.077 498.673 269.962 498.673L269.96 498.672Z" fill="url(#paint1_linear_65_18)"/>
<path d="M81.8674 476.696H261.808C278.771 476.696 291.854 472.114 300.694 463.079C309.536 454.033 314.019 441.448 314.019 425.675V63.0846H268.04V210.529C268.04 247.144 258.841 275.112 240.697 293.659C222.55 312.216 199.045 321.625 170.833 321.625C145.836 321.625 125.687 314.864 110.945 301.529C96.1747 288.177 88.6859 266.686 88.6859 237.649V63.0846H42.7074V241.264C42.7074 267.116 47.8412 289.286 57.9645 307.157C68.0859 325.02 82.1617 338.701 99.8071 347.818C117.48 356.955 137.119 361.588 158.179 361.588C178.06 361.588 194.787 359.072 207.901 354.107C220.982 349.151 231.731 342.522 239.848 334.403C247.973 326.277 254.103 317.938 258.067 309.618L258.287 309.157H268.042V417.238C268.042 429.772 261.892 436.127 249.76 436.127H81.8674V476.696ZM261.808 478.314H80.2511V434.51H249.758C260.972 434.51 266.422 428.86 266.422 417.24V310.777H259.303C255.255 319.11 249.095 327.444 240.99 335.549C232.711 343.833 221.769 350.585 208.473 355.623C195.178 360.657 178.257 363.209 158.18 363.209C136.86 363.209 116.971 358.514 99.0665 349.259C81.1379 339.994 66.838 326.099 56.5611 307.957C46.2972 289.838 41.0912 267.401 41.0912 241.266V61.4661H90.304V237.648C90.304 266.207 97.6132 287.294 112.028 300.325C126.467 313.385 146.25 320.005 170.833 320.005C198.594 320.005 221.712 310.76 239.542 292.525C257.38 274.292 266.424 246.705 266.424 210.527V61.4661H315.637V425.675C315.637 441.885 310.999 454.849 301.851 464.209C292.695 473.568 279.224 478.312 261.81 478.312L261.808 478.314Z" fill="url(#paint2_linear_65_18)"/>
<path d="M91.2945 456.496H253.659C268.964 456.496 280.768 452.361 288.746 444.209C296.723 436.046 300.768 424.69 300.768 410.459V83.2846H259.281V216.327C259.281 249.366 250.98 274.601 234.608 291.336C218.235 308.081 197.026 316.572 171.568 316.572C149.012 316.572 130.832 310.47 117.53 298.438C104.202 286.392 97.4466 266.999 97.4466 240.799V83.2846H55.9595V244.059C55.9595 267.386 60.5916 287.39 69.7262 303.514C78.8589 319.633 91.5593 331.977 107.483 340.203C123.43 348.448 141.15 352.629 160.152 352.629C178.092 352.629 193.186 350.359 205.016 345.879C216.82 341.409 226.52 335.425 233.842 328.099C241.173 320.768 246.705 313.244 250.28 305.735L250.478 305.318H259.279V402.842C259.279 414.151 253.729 419.886 242.784 419.886H91.2945V456.492V456.496ZM253.657 457.955H89.8356V418.431H242.786C252.903 418.431 257.822 413.333 257.822 402.848V306.783H251.398C247.745 314.303 242.188 321.822 234.873 329.135C227.403 336.609 217.531 342.701 205.531 347.248C193.534 351.788 178.266 354.092 160.15 354.092C140.913 354.092 122.966 349.857 106.811 341.503C90.6336 333.144 77.7296 320.605 68.4561 304.236C59.1938 287.888 54.4969 267.642 54.4969 244.06V81.8253H98.9017V240.798C98.9017 266.566 105.498 285.596 118.504 297.353C131.532 309.136 149.383 315.11 171.564 315.11C196.615 315.11 217.472 306.768 233.562 290.314C249.658 273.862 257.819 248.97 257.819 216.325V81.8253H302.224V410.459C302.224 425.085 298.039 436.785 289.784 445.229C281.524 453.673 269.367 457.955 253.655 457.955H253.657Z" fill="url(#paint3_linear_65_18)"/>
<path d="M100.72 436.294H245.507C259.155 436.294 269.682 432.607 276.795 425.336C283.91 418.057 287.516 407.931 287.516 395.24V103.486H250.521V222.125C250.521 251.586 243.117 274.092 228.519 289.014C213.917 303.946 195.004 311.518 172.303 311.518C152.189 311.518 135.977 306.077 124.114 295.348C112.23 284.605 106.203 267.31 106.203 243.948V103.486H69.2078V246.857C69.2078 267.659 73.3382 285.498 81.4841 299.877C89.6283 314.251 100.955 325.259 115.153 332.596C129.373 339.948 145.176 343.675 162.122 343.675C178.12 343.675 191.579 341.651 202.13 337.657C212.657 333.67 221.304 328.335 227.836 321.803C234.373 315.264 239.307 308.555 242.495 301.86L242.671 301.49H250.519V388.457C250.519 398.542 245.57 403.655 235.808 403.655H100.718V436.298L100.72 436.294ZM245.507 437.596H99.4183V402.349H235.81C244.833 402.349 249.219 397.803 249.219 388.453V302.788H243.491C240.233 309.494 235.278 316.199 228.756 322.722C222.095 329.386 213.292 334.82 202.591 338.873C191.894 342.923 178.279 344.977 162.124 344.977C144.969 344.977 128.964 341.199 114.559 333.751C100.133 326.298 88.6267 315.116 80.3567 300.518C72.0977 285.94 67.91 267.885 67.91 246.857V102.185H107.509V243.948C107.509 266.927 113.39 283.896 124.989 294.381C136.607 304.888 152.526 310.216 172.306 310.216C194.645 310.216 213.245 302.777 227.592 288.105C241.945 273.435 249.221 251.235 249.221 222.125V102.185H288.82V395.242C288.82 408.285 285.087 418.718 277.726 426.248C270.36 433.779 259.52 437.596 245.507 437.596Z" fill="url(#paint4_linear_65_18)"/>
<path d="M110.145 416.094H237.356C249.347 416.094 258.596 412.855 264.846 406.466C271.097 400.072 274.266 391.173 274.266 380.023V123.686H241.762V227.923C241.762 253.809 235.258 273.581 222.432 286.692C209.604 299.81 192.986 306.462 173.039 306.462C155.368 306.462 141.124 301.683 130.701 292.255C120.259 282.816 114.964 267.622 114.964 247.096V123.686H82.4598V249.651C82.4598 267.927 86.0885 283.601 93.2458 296.235C100.401 308.864 110.352 318.535 122.827 324.981C135.322 331.44 149.205 334.716 164.094 334.716C178.149 334.716 189.976 332.936 199.245 329.427C208.493 325.923 216.093 321.236 221.83 315.498C227.575 309.753 231.907 303.857 234.71 297.975L234.866 297.649H241.762V374.059C241.762 382.92 237.413 387.412 228.838 387.412H110.147V416.092L110.145 416.094ZM237.356 417.236H109.003V386.27H228.838C236.765 386.27 240.62 382.275 240.62 374.06V298.796H235.588C232.725 304.688 228.371 310.577 222.641 316.309C216.787 322.164 209.054 326.938 199.653 330.499C190.253 334.057 178.292 335.862 164.097 335.862C149.025 335.862 134.964 332.544 122.307 325.999C109.632 319.449 99.5219 309.627 92.2572 296.801C84.9999 283.992 81.3212 268.131 81.3212 249.653V122.544H116.112V247.098C116.112 267.288 121.279 282.196 131.471 291.409C141.677 300.64 155.664 305.322 173.043 305.322C192.669 305.322 209.013 298.786 221.617 285.894C234.229 273.003 240.621 253.499 240.621 227.925V122.546H275.412V380.027C275.412 391.486 272.133 400.653 265.667 407.27C259.194 413.886 249.669 417.24 237.359 417.24L237.356 417.236Z" fill="url(#paint5_linear_65_18)"/>
<path d="M119.57 395.892H229.204C239.538 395.892 247.51 393.099 252.896 387.596C258.283 382.085 261.014 374.416 261.014 364.807V143.888H232.999V233.723C232.999 256.033 227.393 273.073 216.339 284.372C205.283 295.677 190.961 301.41 173.773 301.41C158.543 301.41 146.267 297.29 137.284 289.166C128.285 281.031 123.723 267.936 123.723 250.246V143.888H95.7081V252.449C95.7081 268.201 98.8369 281.709 105.004 292.596C111.171 303.479 119.746 311.814 130.497 317.37C141.265 322.936 153.23 325.76 166.062 325.76C178.175 325.76 188.367 324.227 196.355 321.203C204.326 318.185 210.876 314.146 215.819 309.198C220.769 304.248 224.504 299.166 226.92 294.096L227.053 293.814H232.996V359.666C232.996 367.303 229.249 371.175 221.856 371.175H119.565V395.892H119.57ZM229.204 396.877H118.585V370.188H221.862C228.693 370.188 232.014 366.746 232.014 359.666V294.799H227.677C225.209 299.877 221.458 304.953 216.519 309.892C211.474 314.938 204.809 319.053 196.705 322.122C188.606 325.188 178.295 326.744 166.063 326.744C153.074 326.744 140.955 323.883 130.047 318.244C119.124 312.599 110.41 304.133 104.148 293.079C97.8946 282.04 94.7232 268.37 94.7232 252.446V142.899H124.708V250.242C124.708 267.642 129.162 280.49 137.943 288.431C146.741 296.388 158.793 300.422 173.771 300.422C190.685 300.422 204.77 294.788 215.634 283.679C226.503 272.57 232.013 255.76 232.013 233.72V142.899H261.997V364.803C261.997 374.679 259.172 382.579 253.598 388.281C248.019 393.983 239.811 396.873 229.202 396.873L229.204 396.877Z" fill="url(#paint6_linear_65_18)"/>
<path d="M128.996 375.692H221.053C229.73 375.692 236.424 373.348 240.945 368.725C245.468 364.098 247.762 357.659 247.762 349.59V164.088H224.239V239.52C224.239 258.251 219.533 272.56 210.25 282.049C200.967 291.544 188.941 296.357 174.508 296.357C161.72 296.357 151.412 292.898 143.869 286.075C136.314 279.246 132.482 268.249 132.482 253.396V164.088H108.958V255.244C108.958 268.47 111.585 279.812 116.764 288.955C121.942 298.094 129.144 305.092 138.171 309.757C147.213 314.431 157.26 316.801 168.033 316.801C178.205 316.801 186.764 315.514 193.471 312.973C200.164 310.438 205.662 307.048 209.815 302.894C213.971 298.736 217.107 294.47 219.136 290.214L219.249 289.979H224.241V345.273C224.241 351.686 221.093 354.936 214.888 354.936H128.996V375.692ZM221.053 376.52H128.168V354.11H214.888C220.625 354.11 223.413 351.22 223.413 345.275V290.809H219.771C217.7 295.072 214.549 299.335 210.402 303.483C206.166 307.72 200.569 311.175 193.765 313.753C186.963 316.327 178.307 317.633 168.035 317.633C157.127 317.633 146.952 315.231 137.793 310.496C128.622 305.757 121.305 298.648 116.047 289.366C110.797 280.098 108.133 268.618 108.133 255.248V163.264H133.309V253.398C133.309 268.009 137.049 278.798 144.423 285.464C151.81 292.146 161.931 295.533 174.508 295.533C188.711 295.533 200.538 290.803 209.659 281.473C218.785 272.146 223.411 258.031 223.411 239.523V163.264H248.588V349.592C248.588 357.885 246.214 364.518 241.534 369.305C236.85 374.094 229.958 376.52 221.049 376.52H221.053Z" fill="url(#paint7_linear_65_18)"/>
<path d="M138.423 355.49H212.903C219.923 355.49 225.338 353.594 228.999 349.853C232.659 346.109 234.514 340.899 234.514 334.372V184.288H215.482V245.318C215.482 260.473 211.674 272.049 204.164 279.727C196.654 287.409 186.925 291.303 175.246 291.303C164.899 291.303 156.56 288.505 150.458 282.985C144.345 277.459 141.246 268.562 141.246 256.544V184.288H122.214V258.04C122.214 268.74 124.339 277.918 128.529 285.314C132.719 292.709 138.545 298.372 145.849 302.144C153.163 305.925 161.293 307.844 170.011 307.844C178.24 307.844 185.164 306.803 190.59 304.748C196.006 302.696 200.454 299.953 203.813 296.592C207.175 293.229 209.713 289.777 211.353 286.333L211.444 286.142H215.482V330.879C215.482 336.068 212.936 338.698 207.915 338.698H138.423V355.49ZM212.903 356.16H137.753V338.029H207.913C212.555 338.029 214.812 335.69 214.812 330.881V286.814H211.864C210.189 290.264 207.639 293.712 204.285 297.068C200.858 300.496 196.33 303.292 190.825 305.377C185.323 307.461 178.319 308.516 170.009 308.516C161.183 308.516 152.952 306.573 145.541 302.742C138.121 298.907 132.2 293.155 127.948 285.648C123.699 278.148 121.544 268.86 121.544 258.044V183.623H141.914V256.548C141.914 268.368 144.939 277.098 150.906 282.492C156.883 287.898 165.071 290.638 175.246 290.638C186.738 290.638 196.305 286.812 203.687 279.264C211.07 271.718 214.813 260.298 214.813 245.323V183.623H235.184V334.375C235.184 341.085 233.264 346.451 229.478 350.325C225.688 354.199 220.112 356.162 212.905 356.162L212.903 356.16Z" fill="url(#paint8_linear_65_18)"/>
<path d="M147.848 335.29H204.751C210.115 335.29 214.253 333.84 217.048 330.985C219.844 328.123 221.262 324.144 221.262 319.157V204.492H206.721V251.12C206.721 262.699 203.811 271.544 198.073 277.409C192.334 283.277 184.901 286.253 175.979 286.253C168.074 286.253 161.704 284.114 157.04 279.898C152.369 275.675 150.001 268.879 150.001 259.698V204.494H135.461V260.84C135.461 269.016 137.084 276.027 140.285 281.677C143.486 287.327 147.937 291.653 153.517 294.536C159.106 297.425 165.316 298.892 171.977 298.892C178.264 298.892 183.553 298.096 187.7 296.527C191.838 294.961 195.237 292.864 197.803 290.296C200.373 287.725 202.311 285.088 203.565 282.457L203.633 282.311H206.717V316.49C206.717 320.453 204.772 322.464 200.936 322.464H147.842V335.294L147.848 335.29ZM204.751 335.801H147.337V321.949H200.941C204.487 321.949 206.212 320.162 206.212 316.488V282.82H203.961C202.68 285.455 200.732 288.09 198.17 290.653C195.552 293.273 192.092 295.409 187.885 297.001C183.681 298.592 178.331 299.399 171.98 299.399C165.238 299.399 158.949 297.914 153.287 294.988C147.618 292.059 143.096 287.664 139.845 281.927C136.599 276.198 134.953 269.101 134.953 260.836V203.977H150.516V259.692C150.516 268.723 152.828 275.392 157.386 279.512C161.952 283.642 168.209 285.736 175.983 285.736C184.762 285.736 192.073 282.812 197.711 277.046C203.352 271.279 206.212 262.555 206.212 251.114V203.975H221.775V319.151C221.775 324.277 220.308 328.377 217.415 331.336C214.519 334.296 210.259 335.798 204.751 335.798V335.801Z" fill="url(#paint9_linear_65_18)"/>
<path d="M157.273 315.088H196.6C200.306 315.088 203.167 314.086 205.098 312.112C207.03 310.135 208.01 307.385 208.01 303.938V224.692H197.961V256.916C197.961 264.918 195.95 271.031 191.984 275.085C188.019 279.14 182.881 281.198 176.714 281.198C171.251 281.198 166.848 279.72 163.625 276.805C160.396 273.886 158.76 269.19 158.76 262.844V224.692H148.711V263.635C148.711 269.285 149.833 274.131 152.045 278.036C154.257 281.94 157.334 284.931 161.191 286.923C165.053 288.92 169.346 289.933 173.948 289.933C178.294 289.933 181.95 289.383 184.816 288.298C187.674 287.214 190.024 285.766 191.797 283.992C193.573 282.216 194.913 280.394 195.78 278.575L195.828 278.475H197.961V302.098C197.961 304.836 196.616 306.225 193.965 306.225H157.271V315.092L157.273 315.088ZM196.6 315.442H156.92V305.868H193.967C196.418 305.868 197.609 304.633 197.609 302.094V278.825H196.054C195.169 280.648 193.823 282.468 192.051 284.24C190.242 286.051 187.85 287.527 184.944 288.627C182.039 289.727 178.34 290.285 173.952 290.285C169.292 290.285 164.945 289.259 161.031 287.236C157.114 285.212 153.987 282.175 151.741 278.211C149.498 274.251 148.361 269.348 148.361 263.635V224.338H159.117V262.844C159.117 269.086 160.715 273.694 163.866 276.542C167.021 279.396 171.345 280.844 176.718 280.844C182.785 280.844 187.837 278.823 191.734 274.838C195.633 270.853 197.609 264.823 197.609 256.918V224.34H208.365V303.94C208.365 307.483 207.351 310.316 205.353 312.362C203.352 314.409 200.408 315.446 196.602 315.446L196.6 315.442Z" fill="url(#paint10_linear_65_18)"/>
<path d="M160.31 308.41C160.31 308.409 160.309 308.408 160.309 308.407V306.908C160.309 303.415 163.141 300.583 166.634 300.583H191.609C193.769 300.583 194.85 299.464 194.85 297.229V278.286C194.85 277.757 194.421 277.327 193.891 277.327V277.327C193.521 277.327 193.187 277.541 193.013 277.867C192.273 279.248 191.227 280.616 189.876 281.968C188.348 283.498 186.354 284.727 183.896 285.659C181.437 286.59 178.344 287.057 174.619 287.057C170.668 287.057 167.035 286.199 163.72 284.485C160.402 282.772 157.795 280.236 155.896 276.881C153.996 273.527 153.045 269.429 153.045 264.583V235.791C153.045 233.352 155.022 231.375 157.46 231.375V231.375C159.899 231.375 161.876 233.352 161.876 235.791V263.912C161.876 269.279 163.235 273.192 165.956 275.653C168.676 278.112 172.345 279.342 176.966 279.342C182.181 279.342 186.467 277.627 189.82 274.199C193.173 270.772 194.85 265.666 194.85 258.881V235.791C194.85 233.352 196.827 231.375 199.266 231.375V231.375C201.704 231.375 203.681 233.352 203.681 235.791V298.796C203.681 301.775 202.843 304.123 201.167 305.84C199.49 307.553 197.048 308.412 193.845 308.412H160.314C160.312 308.412 160.311 308.411 160.31 308.41V308.41Z" fill="url(#paint11_linear_65_18)"/>
<path d="M186.867 252.727C189.306 252.727 191.283 250.75 191.283 248.311C191.283 245.871 189.306 243.894 186.867 243.894C184.429 243.894 182.452 245.871 182.452 248.311C182.452 250.75 184.429 252.727 186.867 252.727Z" fill="url(#paint12_linear_65_18)"/>
<path d="M169.859 252.727C172.297 252.727 174.274 250.75 174.274 248.311C174.274 245.871 172.297 243.894 169.859 243.894C167.42 243.894 165.443 245.871 165.443 248.311C165.443 250.75 167.42 252.727 169.859 252.727Z" fill="url(#paint13_linear_65_18)"/>
<defs>
<linearGradient id="paint0_linear_65_18" x1="-13.1462" y1="444.781" x2="376.717" y2="55.0216" gradientUnits="userSpaceOnUse">
<stop stop-color="#4FACFE" stop-opacity="0.05"/>
<stop offset="1" stop-color="#1BC88B" stop-opacity="0.05"/>
</linearGradient>
<linearGradient id="paint1_linear_65_18" x1="2.5033" y1="430.49" x2="360.509" y2="72.5798" gradientUnits="userSpaceOnUse">
<stop stop-color="#4FACFE" stop-opacity="0.09"/>
<stop offset="1" stop-color="#1BC88B" stop-opacity="0.09"/>
</linearGradient>
<linearGradient id="paint2_linear_65_18" x1="18.1528" y1="416.198" x2="344.299" y2="90.138" gradientUnits="userSpaceOnUse">
<stop stop-color="#4FACFE" stop-opacity="0.14"/>
<stop offset="1" stop-color="#1BC88B" stop-opacity="0.14"/>
</linearGradient>
<linearGradient id="paint3_linear_65_18" x1="33.8024" y1="401.907" x2="328.091" y2="107.696" gradientUnits="userSpaceOnUse">
<stop stop-color="#4FACFE" stop-opacity="0.18"/>
<stop offset="1" stop-color="#1BC88B" stop-opacity="0.18"/>
</linearGradient>
<linearGradient id="paint4_linear_65_18" x1="49.4519" y1="387.616" x2="311.882" y2="125.254" gradientUnits="userSpaceOnUse">
<stop stop-color="#4FACFE" stop-opacity="0.23"/>
<stop offset="1" stop-color="#1BC88B" stop-opacity="0.23"/>
</linearGradient>
<linearGradient id="paint5_linear_65_18" x1="65.1015" y1="373.323" x2="295.674" y2="142.813" gradientUnits="userSpaceOnUse">
<stop stop-color="#4FACFE" stop-opacity="0.27"/>
<stop offset="1" stop-color="#1BC88B" stop-opacity="0.27"/>
</linearGradient>
<linearGradient id="paint6_linear_65_18" x1="80.7491" y1="359.033" x2="279.464" y2="160.371" gradientUnits="userSpaceOnUse">
<stop stop-color="#4FACFE" stop-opacity="0.32"/>
<stop offset="1" stop-color="#1BC88B" stop-opacity="0.32"/>
</linearGradient>
<linearGradient id="paint7_linear_65_18" x1="96.3987" y1="344.74" x2="263.256" y2="177.929" gradientUnits="userSpaceOnUse">
<stop stop-color="#4FACFE" stop-opacity="0.36"/>
<stop offset="1" stop-color="#1BC88B" stop-opacity="0.36"/>
</linearGradient>
<linearGradient id="paint8_linear_65_18" x1="112.048" y1="330.449" x2="247.046" y2="195.487" gradientUnits="userSpaceOnUse">
<stop stop-color="#4FACFE" stop-opacity="0.41"/>
<stop offset="1" stop-color="#1BC88B" stop-opacity="0.41"/>
</linearGradient>
<linearGradient id="paint9_linear_65_18" x1="127.698" y1="316.159" x2="230.839" y2="213.045" gradientUnits="userSpaceOnUse">
<stop stop-color="#4FACFE" stop-opacity="0.45"/>
<stop offset="1" stop-color="#1BC88B" stop-opacity="0.45"/>
</linearGradient>
<linearGradient id="paint10_linear_65_18" x1="143.347" y1="301.866" x2="214.629" y2="230.604" gradientUnits="userSpaceOnUse">
<stop stop-color="#4FACFE" stop-opacity="0.5"/>
<stop offset="1" stop-color="#1BC88B" stop-opacity="0.5"/>
</linearGradient>
<linearGradient id="paint11_linear_65_18" x1="153.045" y1="269.89" x2="203.681" y2="269.89" gradientUnits="userSpaceOnUse">
<stop stop-color="#4FACFE"/>
<stop offset="1" stop-color="#1BC88B"/>
</linearGradient>
<linearGradient id="paint12_linear_65_18" x1="182.452" y1="248.311" x2="191.283" y2="248.311" gradientUnits="userSpaceOnUse">
<stop stop-color="#4FACFE"/>
<stop offset="1" stop-color="#1BC88B"/>
</linearGradient>
<linearGradient id="paint13_linear_65_18" x1="165.443" y1="248.311" x2="174.272" y2="248.311" gradientUnits="userSpaceOnUse">
<stop stop-color="#4FACFE"/>
<stop offset="1" stop-color="#1BC88B"/>
</linearGradient>
</defs>
</svg>
